<?xml version="1.0" standalone="no"?>
<!DOCTYPE svg PUBLIC "-//W3C//DTD SVG 20010904//EN"
 "http://www.w3.org/TR/2001/REC-SVG-20010904/DTD/svg10.dtd">
<svg version="1.0" xmlns="http://www.w3.org/2000/svg"
 width="8334.000000pt" height="8334.000000pt" viewBox="0 0 8334.000000 8334.000000"
 preserveAspectRatio="xMidYMid meet">

<g transform="translate(0.000000,8334.000000) scale(0.100000,-0.100000)"
fill="#000000" stroke="none">
<path d="M50635 72869 c-567 -15 -1165 -82 -1715 -193 -327 -66 -555 -124
-840 -213 -611 -190 -1181 -444 -1760 -785 -1800 -1058 -3256 -2852 -4067
-5012 -89 -239 -203 -579 -258 -771 -9 -33 -21 -71 -26 -85 -4 -14 -22 -79
-39 -145 -17 -66 -37 -145 -45 -175 -81 -307 -162 -734 -215 -1135 -71 -542
-81 -1281 -24 -1800 35 -328 67 -510 154 -900 4 -22 18 -74 30 -115 12 -41 28
-100 36 -130 43 -161 158 -480 249 -690 241 -562 592 -1086 1007 -1504 48 -48
88 -91 88 -94 0 -4 -7 -24 -15 -47 -7 -22 -35 -107 -61 -190 -146 -471 -422
-1206 -599 -1600 -7 -16 -37 -84 -65 -150 -29 -66 -66 -148 -81 -182 -16 -35
-43 -93 -60 -130 -103 -227 -424 -874 -501 -1013 -14 -25 -43 -79 -65 -120
-82 -155 -293 -530 -366 -653 -43 -71 -77 -130 -77 -132 0 -3 -57 -96 -208
-342 -472 -767 -1060 -1589 -1610 -2251 -549 -661 -1193 -1327 -1752 -1812
-41 -36 -91 -79 -110 -96 -1320 -1170 -2364 -2259 -3361 -3509 -249 -311 -606
-794 -841 -1135 -158 -231 -203 -298 -340 -510 -676 -1049 -1206 -2104 -1560
-3105 -63 -180 -130 -380 -158 -475 -12 -41 -29 -95 -37 -120 -34 -104 -127
-455 -166 -625 -74 -325 -96 -434 -141 -705 -160 -975 -163 -1963 -10 -2870
23 -134 31 -179 64 -345 12 -65 64 -288 80 -345 68 -251 118 -421 159 -546 48
-144 180 -507 201 -549 5 -11 14 -32 19 -47 48 -131 284 -625 409 -853 200
-368 274 -467 397 -532 114 -60 148 -68 295 -68 117 0 144 3 200 24 213 78
369 275 386 490 3 42 -1 182 -10 311 -49 723 5 1400 165 2078 87 373 224 787
379 1147 358 835 866 1625 1595 2479 279 328 863 933 1235 1281 542 507 1340
1192 1951 1676 31 24 179 143 330 263 151 121 337 269 414 330 76 61 211 168
300 239 88 70 185 147 215 170 917 723 1760 1426 2220 1853 30 28 87 80 126
116 151 140 438 422 618 609 469 484 877 988 1155 1424 35 55 74 116 86 135
34 52 105 171 105 176 0 3 12 23 26 46 42 65 197 372 254 502 115 261 211 536
279 799 17 64 44 168 60 230 17 61 46 175 66 252 56 215 190 698 250 900 196
665 436 1337 616 1723 22 46 39 86 39 88 0 2 38 81 84 176 490 1012 1143 1777
2019 2365 77 52 141 92 142 91 4 -5 219 -426 425 -833 112 -220 222 -428 246
-461 95 -134 204 -193 479 -258 105 -25 204 -50 220 -55 17 -5 64 -19 105 -31
451 -133 790 -303 1046 -527 192 -168 324 -356 521 -748 279 -555 440 -796
692 -1038 260 -248 568 -440 976 -608 83 -34 90 -39 97 -70 4 -19 11 -128 14
-244 13 -432 -49 -718 -200 -919 -167 -221 -427 -361 -941 -506 -112 -31 -445
-142 -500 -165 -16 -7 -86 -37 -155 -66 -743 -311 -1281 -780 -1573 -1369 -68
-137 -79 -162 -108 -235 -82 -213 -160 -526 -184 -740 -4 -32 -9 -68 -11 -80
-11 -58 -24 -336 -24 -530 0 -591 72 -1157 276 -2175 36 -179 72 -354 80 -390
58 -262 212 -1030 253 -1265 57 -327 109 -692 126 -890 4 -44 9 -96 11 -115
11 -88 35 -583 40 -840 8 -333 -14 -886 -46 -1215 -74 -732 -182 -1337 -380
-2120 -67 -265 -85 -334 -137 -525 -14 -52 -29 -108 -33 -125 -5 -16 -32 -113
-60 -215 -29 -102 -55 -194 -57 -205 -3 -11 -25 -90 -49 -175 -24 -85 -51
-182 -60 -215 -9 -33 -22 -80 -29 -105 -7 -25 -27 -97 -44 -160 -18 -63 -38
-137 -46 -165 -47 -167 -175 -671 -225 -890 -63 -272 -90 -399 -165 -785 -18
-96 -68 -401 -90 -550 -9 -63 -20 -144 -26 -180 -11 -78 -43 -359 -59 -525
-15 -146 -1 -235 56 -354 59 -121 149 -202 374 -335 217 -128 442 -268 555
-345 44 -30 100 -68 125 -84 281 -190 564 -443 697 -624 90 -121 183 -302 208
-405 l7 -28 -1120 0 c-1148 0 -1226 -2 -1327 -40 -260 -96 -423 -365 -385
-634 28 -201 147 -367 326 -456 130 -64 30 -60 1715 -60 1660 0 1586 -2 1712
54 142 63 242 170 310 333 l32 78 -2 190 c-2 359 -56 701 -155 990 -239 698
-757 1233 -1849 1908 l-62 39 6 51 c15 129 52 378 82 552 9 50 22 128 30 175
26 150 124 624 139 670 2 8 14 60 27 115 40 182 167 679 234 920 35 124 48
170 79 288 8 28 28 102 46 162 17 61 37 133 45 160 7 28 41 149 75 270 86 309
90 324 105 380 8 28 27 102 44 165 52 194 151 581 167 650 7 36 28 124 44 195
35 148 44 192 93 435 58 284 94 493 147 855 25 170 60 508 87 830 26 316 26
1465 0 1790 -24 306 -65 691 -87 815 -5 30 -19 118 -31 195 -19 127 -32 208
-59 350 -5 28 -19 102 -30 165 -24 128 -41 215 -107 530 -24 118 -50 247 -58
285 -8 39 -28 135 -45 215 -215 1009 -310 1673 -310 2162 0 149 23 456 40 538
5 25 12 65 16 90 3 25 19 97 35 160 194 756 715 1239 1604 1490 600 169 1018
385 1324 683 290 283 492 656 577 1062 53 256 59 322 59 730 0 304 -4 428 -18
565 -26 250 -45 378 -64 430 -67 178 -209 310 -398 370 -84 26 -232 78 -260
90 -11 5 -49 21 -85 36 -264 107 -535 295 -703 488 -127 145 -208 279 -392
646 -247 492 -413 738 -666 987 -173 170 -353 304 -596 442 -291 165 -727 333
-1144 441 -62 16 -118 35 -124 42 -7 7 -69 123 -138 258 -68 135 -174 342
-235 460 -60 118 -176 346 -257 505 -173 339 -198 380 -272 451 -112 106 -248
158 -413 157 -119 -1 -192 -20 -294 -77 -34 -18 -92 -50 -131 -71 -648 -347
-1327 -863 -1786 -1356 -490 -528 -845 -1044 -1194 -1734 -137 -272 -170 -342
-255 -540 -146 -339 -287 -713 -405 -1070 -65 -198 -119 -365 -131 -407 -8
-27 -21 -70 -29 -98 -30 -99 -44 -148 -99 -340 -31 -107 -63 -217 -71 -245 -8
-27 -32 -115 -54 -195 -38 -138 -62 -230 -132 -497 -16 -65 -48 -188 -70 -273
-79 -303 -161 -523 -304 -815 -382 -778 -1042 -1578 -2089 -2530 -55 -49 -104
-94 -110 -100 -6 -5 -45 -39 -86 -75 -41 -36 -77 -67 -80 -71 -14 -15 -391
-337 -575 -490 -391 -326 -746 -611 -1765 -1419 -476 -378 -619 -492 -783
-625 -1143 -926 -1778 -1486 -2472 -2180 -449 -448 -693 -714 -1063 -1160
-129 -154 -424 -543 -548 -720 -39 -55 -86 -122 -105 -150 -95 -135 -365 -569
-454 -730 -94 -169 -136 -250 -218 -415 -95 -191 -112 -227 -222 -475 -51
-116 -133 -330 -220 -575 -23 -65 -86 -267 -110 -350 -7 -25 -20 -67 -28 -95
-8 -27 -22 -84 -32 -125 -22 -98 -23 -100 -33 -100 -13 0 -68 351 -101 645
-39 342 -40 1111 -2 1480 71 691 189 1256 403 1935 103 324 199 583 365 980
115 275 411 891 549 1140 19 36 63 115 96 175 367 664 824 1359 1371 2085 138
183 164 216 391 500 685 856 1584 1818 2451 2625 88 82 187 174 220 205 64 60
275 249 434 389 201 176 238 209 356 316 345 314 743 714 1080 1085 199 220
196 217 340 385 65 77 142 167 170 200 143 168 546 678 683 865 18 25 56 76
84 114 523 706 1101 1610 1550 2426 200 363 264 484 457 875 169 340 186 375
288 600 31 66 68 147 83 180 15 33 40 89 55 125 15 36 36 83 46 105 140 308
393 963 539 1395 46 135 85 247 86 249 2 1 67 -23 145 -54 489 -195 888 -265
1424 -252 314 8 495 33 799 108 159 39 439 134 561 189 11 5 43 19 70 31 261
113 587 304 865 508 517 377 1147 1044 1642 1736 486 681 912 1498 1169 2245
17 47 39 112 50 145 69 200 161 526 219 780 11 50 25 108 30 130 34 146 90
469 120 690 108 805 91 1776 -44 2610 -49 301 -134 708 -172 825 -40 125 -142
255 -248 319 -110 66 -177 84 -311 85 -132 0 -182 -11 -290 -68 -88 -45 -193
-155 -238 -246 -74 -151 -84 -267 -41 -453 89 -388 164 -824 189 -1112 3 -38
10 -110 16 -160 17 -157 27 -641 18 -914 -44 -1417 -486 -2773 -1301 -3993
-394 -590 -906 -1168 -1384 -1563 -375 -311 -842 -550 -1267 -649 -221 -52
-298 -60 -547 -60 -246 0 -370 14 -560 64 -41 11 -86 22 -100 26 -14 3 -34 9
-45 14 -11 4 -60 22 -110 40 -451 164 -885 496 -1221 935 -180 234 -329 488
-467 795 -103 229 -216 580 -276 855 -12 55 -26 118 -32 140 -23 98 -64 391
-85 610 -24 247 -24 824 0 1080 30 323 69 606 122 880 24 126 90 416 114 505
5 19 19 71 31 115 52 199 199 658 266 835 50 131 176 446 198 495 13 28 44 97
70 155 314 697 748 1404 1220 1984 44 54 92 114 106 133 135 173 580 629 830
848 281 248 638 522 873 672 96 61 416 253 421 253 3 0 22 11 43 24 89 56 463
240 622 306 41 17 84 35 95 40 112 52 480 183 676 241 239 70 636 162 859 199
573 95 1015 133 1570 134 382 1 819 -25 1100 -65 380 -53 553 -85 890 -164
251 -59 745 -216 895 -284 11 -5 76 -33 145 -62 234 -97 520 -252 744 -401
294 -196 686 -541 926 -814 47 -54 90 -102 95 -108 138 -150 413 -503 705
-906 504 -694 730 -972 1031 -1265 276 -269 538 -458 849 -614 153 -76 521
-231 550 -231 6 0 18 -4 28 -9 58 -32 505 -158 727 -205 44 -10 109 -24 145
-31 78 -17 229 -44 520 -95 94 -16 309 -55 465 -84 17 -3 93 -19 170 -36 313
-67 430 -99 680 -182 143 -48 182 -67 255 -121 298 -223 460 -672 460 -1276 0
-354 -55 -715 -174 -1152 -92 -338 -294 -809 -492 -1146 -440 -749 -1036
-1331 -1718 -1677 -168 -86 -212 -106 -336 -154 -265 -103 -553 -178 -831
-217 -906 -125 -1963 -89 -2984 101 -408 76 -604 122 -1020 243 -271 79 -424
131 -705 238 -316 121 -326 124 -419 130 -238 16 -454 -108 -565 -322 -110
-215 -71 -492 95 -669 94 -101 170 -140 554 -281 116 -42 219 -81 230 -85 25
-11 376 -122 470 -149 119 -35 219 -63 243 -68 12 -3 22 -6 22 -8 0 -1 -11
-60 -24 -131 -131 -696 -185 -1235 -183 -1829 1 -488 29 -823 108 -1290 17
-99 63 -324 84 -410 2 -11 12 -51 20 -90 9 -38 22 -90 30 -115 7 -25 20 -74
30 -110 89 -332 260 -819 448 -1280 119 -291 138 -336 147 -355 31 -68 162
-386 272 -660 259 -647 403 -1140 492 -1680 100 -608 104 -1290 10 -1985 -59
-439 -184 -1013 -319 -1470 -20 -69 -41 -138 -45 -155 -18 -69 -149 -469 -220
-669 -167 -476 -485 -1254 -696 -1704 -24 -51 -44 -95 -44 -97 0 -2 -30 -65
-66 -142 -36 -76 -79 -165 -94 -198 -15 -33 -97 -202 -183 -375 -85 -173 -171
-350 -191 -392 -123 -263 -140 -302 -242 -533 -42 -93 -85 -190 -96 -215 -11
-25 -35 -81 -53 -125 -18 -44 -52 -125 -74 -180 -211 -506 -457 -1174 -621
-1690 -63 -196 -184 -602 -216 -720 -7 -27 -25 -93 -39 -145 -74 -275 -170
-685 -225 -955 -47 -236 -49 -245 -66 -340 -78 -456 -108 -675 -154 -1145 -38
-382 -49 -1032 -25 -1420 32 -519 104 -987 216 -1420 220 -841 570 -1535 1089
-2160 95 -114 412 -441 520 -536 293 -258 582 -462 1015 -719 983 -583 1394
-925 1575 -1310 32 -69 80 -193 80 -207 0 -5 -633 -8 -1407 -8 -891 0 -1434
-4 -1478 -10 -251 -37 -442 -208 -501 -450 -18 -75 -17 -209 2 -284 28 -110
72 -184 159 -271 56 -56 100 -90 146 -112 141 -68 -7 -64 2031 -61 l1843 3 68
23 c200 68 354 246 395 457 14 76 15 106 3 282 -27 417 -72 660 -177 943 -129
347 -324 641 -629 945 -280 280 -519 463 -1070 820 -27 18 -198 121 -380 230
-509 305 -720 460 -1008 744 -409 403 -712 858 -931 1397 -180 442 -307 979
-357 1504 -29 313 -39 914 -19 1235 15 245 51 614 80 817 36 250 111 690 139
813 5 22 16 72 24 110 64 299 162 699 228 928 11 39 25 90 30 112 5 22 14 51
18 65 5 14 19 59 31 100 12 41 25 86 30 100 4 14 25 79 45 145 38 123 171 524
223 675 64 184 275 736 357 935 48 116 102 246 120 290 30 74 151 349 208 475
129 284 180 391 412 865 64 132 135 278 157 325 22 47 57 121 78 165 32 68
121 262 224 487 14 31 26 59 26 62 0 2 15 37 34 78 39 85 176 406 176 413 0 2
11 28 24 57 125 273 469 1215 586 1608 12 41 33 109 45 150 13 41 31 102 40
135 9 33 23 80 30 105 28 93 91 338 125 485 11 50 27 117 35 150 34 149 73
346 115 585 46 265 91 654 105 910 3 58 8 143 10 190 28 497 -24 1172 -127
1675 -11 55 -26 129 -33 165 -15 71 -86 343 -133 510 -92 325 -276 823 -514
1395 -44 105 -106 255 -139 335 -33 80 -64 154 -69 165 -5 11 -21 49 -36 85
-291 709 -449 1209 -550 1740 -84 439 -114 777 -114 1266 -1 198 1 367 4 375
3 8 10 86 16 174 10 143 30 332 60 555 13 100 56 354 78 460 15 73 21 85 37
84 11 -1 74 -9 140 -18 389 -56 550 -72 1068 -106 194 -13 919 -13 1106 0 341
24 518 40 666 60 119 17 324 49 375 60 104 23 349 83 395 97 101 31 381 125
410 138 17 8 71 31 120 51 331 135 713 355 1040 599 897 668 1633 1712 2010
2850 74 225 81 248 126 424 178 695 220 1389 119 1976 -38 218 -74 356 -140
535 -17 47 -36 99 -42 115 -25 68 -151 306 -208 394 -164 252 -387 471 -627
615 -299 179 -915 364 -1633 491 -52 9 -129 23 -170 30 -41 7 -115 21 -165 29
-538 95 -834 163 -1113 255 -502 167 -745 308 -1066 621 -255 248 -399 427
-944 1174 -265 364 -405 545 -601 781 -69 83 -132 158 -141 167 -8 9 -46 53
-85 96 -127 145 -477 485 -635 616 -510 426 -947 685 -1625 963 -60 25 -121
49 -135 53 -14 5 -70 25 -125 45 -434 158 -1040 309 -1565 389 -566 87 -1163
122 -1785 105z"/>
<path d="M27260 45631 c-152 -40 -244 -106 -362 -258 -240 -310 -483 -670
-685 -1017 -34 -60 -63 -110 -63 -112 0 -2 -13 -25 -29 -51 -71 -117 -304
-575 -381 -748 -196 -443 -354 -859 -450 -1185 -12 -41 -28 -93 -36 -115 -12
-36 -24 -76 -70 -245 -108 -390 -223 -957 -270 -1325 -34 -265 -45 -382 -75
-765 -13 -159 -17 -1028 -6 -1130 3 -30 9 -95 12 -145 24 -350 64 -692 115
-975 48 -269 60 -333 91 -465 5 -22 18 -80 29 -130 11 -49 27 -112 34 -140 8
-27 28 -104 46 -170 17 -66 35 -131 40 -145 5 -14 18 -59 30 -100 46 -159 196
-595 235 -685 7 -16 31 -76 54 -132 151 -379 415 -906 638 -1273 665 -1096
1549 -2035 2618 -2781 424 -296 803 -522 1270 -758 269 -136 327 -164 565
-268 69 -30 139 -61 155 -68 70 -31 343 -138 505 -198 545 -202 1152 -379
1725 -503 145 -32 194 -42 350 -74 88 -17 196 -38 240 -45 44 -8 132 -23 195
-34 521 -91 1388 -184 1925 -206 77 -3 219 -10 315 -15 102 -6 2068 -10 4730
-10 4395 0 4557 1 4626 19 109 28 189 75 274 161 123 123 170 245 170 442 0
156 -35 452 -70 588 -5 19 -19 73 -30 120 -74 302 -255 690 -458 980 -119 170
-329 416 -460 538 -201 188 -390 345 -589 486 -45 33 -80 63 -77 67 2 4 32 25
67 46 308 187 629 445 943 758 446 446 753 875 1029 1440 381 780 565 1582
565 2470 0 548 -63 1023 -202 1530 -38 139 -103 347 -128 410 -5 11 -20 54
-35 95 -63 179 -235 552 -353 765 -384 697 -948 1334 -1597 1806 -299 217
-729 469 -1015 593 -36 16 -83 37 -105 47 -221 99 -606 232 -895 309 -368 98
-743 165 -1165 206 -156 15 -177 15 -253 1 -426 -81 -629 -563 -386 -919 50
-74 88 -110 169 -164 84 -56 176 -83 342 -99 356 -36 713 -98 978 -171 106
-29 259 -74 300 -89 629 -215 1110 -478 1560 -852 453 -375 838 -860 1112
-1398 93 -181 230 -520 278 -685 157 -537 208 -876 208 -1385 0 -511 -59 -892
-214 -1385 -280 -887 -884 -1685 -1679 -2217 -295 -198 -662 -386 -977 -502
-126 -46 -177 -76 -250 -145 -77 -72 -134 -161 -164 -256 -29 -90 -29 -259 -1
-347 30 -94 86 -186 156 -255 63 -63 98 -83 311 -184 594 -281 1121 -662 1430
-1034 130 -157 296 -431 343 -568 l11 -33 -4297 4 c-2363 2 -4319 7 -4347 10
-27 3 -102 8 -165 12 -118 6 -142 8 -365 25 -71 6 -184 15 -250 20 -521 41
-1367 172 -1875 291 -47 11 -114 26 -150 35 -352 81 -1058 287 -1215 353 -11
5 -60 23 -110 41 -49 17 -106 38 -125 45 -300 117 -388 153 -520 210 -176 76
-608 286 -750 365 -52 29 -120 66 -150 83 -189 105 -572 348 -800 508 -426
299 -905 719 -1260 1104 -452 491 -769 927 -1122 1545 -124 216 -343 683 -429
911 -17 46 -40 107 -51 134 -98 255 -198 577 -277 894 -42 166 -124 564 -136
656 -3 28 -11 73 -16 100 -52 282 -99 899 -99 1311 0 242 20 667 40 844 5 47
12 112 15 145 17 180 71 520 121 775 67 336 198 836 287 1090 9 25 32 90 51
145 154 445 364 915 603 1350 209 381 405 683 695 1070 60 80 109 157 127 200
86 206 47 457 -98 620 -148 168 -382 241 -591 186z"/>
<path d="M55233 27242 l-893 -87 0 -1553 0 -1554 -22 4 c-13 3 -97 21 -188 41
-340 74 -622 102 -935 94 -297 -8 -513 -37 -777 -103 -755 -190 -1292 -553
-1700 -1149 -319 -466 -486 -985 -539 -1676 -15 -208 -7 -803 15 -999 55 -489
157 -873 326 -1215 203 -412 464 -700 827 -911 511 -296 1272 -389 1953 -238
336 75 704 231 1039 440 74 47 135 83 136 82 0 -2 30 -94 66 -205 l64 -203
773 0 772 0 0 4660 c0 3722 -3 4660 -12 4659 -7 -1 -415 -40 -905 -87z m-1213
-4361 c74 -11 176 -28 225 -39 l90 -18 3 -1636 2 -1636 -77 -45 c-271 -155
-551 -261 -808 -303 -155 -26 -447 -26 -565 -1 -197 43 -325 112 -465 252
-220 220 -332 519 -380 1015 -17 171 -19 596 -5 760 40 442 153 794 343 1075
76 112 267 305 367 372 151 101 306 167 476 202 144 30 137 29 409 26 189 -2
283 -8 385 -24z"/>
<path d="M28178 27115 c-418 -68 -781 -369 -917 -759 -139 -398 -41 -815 264
-1121 169 -170 368 -278 607 -331 103 -23 336 -24 451 -1 344 69 641 277 815
573 95 159 135 319 135 529 0 128 -4 164 -26 246 -55 211 -149 373 -301 525
-171 171 -374 279 -613 329 -109 23 -308 28 -415 10z"/>
<path d="M31020 22315 l0 -4305 945 0 945 0 0 1710 0 1710 1563 0 1562 0 104
743 c57 408 106 748 109 755 3 9 -334 12 -1667 12 l-1671 0 0 1075 0 1075
1935 0 1935 0 0 765 0 765 -2880 0 -2880 0 0 -4305z"/>
<path d="M39720 24179 c-765 -70 -1361 -332 -1810 -795 -442 -456 -696 -1053
-797 -1874 -26 -210 -26 -890 0 -1100 87 -701 288 -1189 673 -1639 381 -445
899 -727 1599 -871 475 -98 1112 -99 1645 -4 400 72 775 198 1138 384 163 83
482 283 482 302 0 6 -594 1074 -605 1086 -1 1 -60 -30 -131 -70 -532 -295
-1007 -428 -1524 -428 -256 0 -427 31 -618 110 -439 184 -721 538 -832 1045
-25 117 -49 283 -42 290 3 3 864 5 1913 5 l1908 0 5 43 c42 313 56 1115 23
1332 -102 675 -365 1193 -792 1562 -388 335 -864 536 -1445 608 -152 19 -640
28 -790 14z m515 -1219 c343 -39 603 -224 724 -515 59 -140 101 -383 101 -576
l0 -79 -1055 0 c-949 0 -1055 2 -1055 16 0 33 50 234 85 344 49 151 148 345
229 447 219 276 571 408 971 363z"/>
<path d="M46260 24179 c-765 -70 -1361 -332 -1810 -795 -442 -456 -696 -1053
-797 -1874 -26 -210 -26 -890 0 -1100 87 -701 288 -1189 673 -1639 381 -445
899 -727 1599 -871 475 -98 1112 -99 1645 -4 400 72 775 198 1138 384 163 83
482 283 482 302 0 6 -594 1074 -605 1086 -1 1 -60 -30 -131 -70 -532 -295
-1007 -428 -1524 -428 -256 0 -427 31 -618 110 -439 184 -721 538 -832 1045
-25 117 -49 283 -42 290 3 3 864 5 1913 5 l1908 0 5 43 c42 313 56 1115 23
1332 -102 675 -365 1193 -792 1562 -388 335 -864 536 -1445 608 -152 19 -640
28 -790 14z m515 -1219 c343 -39 603 -224 724 -515 59 -140 101 -383 101 -576
l0 -79 -1055 0 c-949 0 -1055 2 -1055 16 0 33 50 234 85 344 49 151 148 345
229 447 219 276 571 408 971 363z"/>
<path d="M28340 24034 c-470 -45 -856 -83 -857 -83 -2 -1 -3 -1337 -3 -2971
l0 -2970 905 0 905 0 0 3055 0 3055 -47 -1 c-27 -1 -433 -39 -903 -85z"/>
</g>
</svg>
